<?xml version="1.0" encoding="utf-8"?>
<!-- Generator: Adobe Illustrator 16.0.3, SVG Export Plug-In . SVG Version: 6.00 Build 0)  -->
<!DOCTYPE svg PUBLIC "-//W3C//DTD SVG 1.1//EN" "http://www.w3.org/Graphics/SVG/1.1/DTD/svg11.dtd">
<svg version="1.1" id="Capa_1" xmlns="http://www.w3.org/2000/svg" xmlns:xlink="http://www.w3.org/1999/xlink" x="0px" y="0px"
	 width="1000px" height="1000px" viewBox="0 0 1000 1000" enable-background="new 0 0 1000 1000" xml:space="preserve">
<g>
	<path d="M239.123,507.271h49.395v64.775h-11.074l-3.779-8.262c-9.668,6.855-19.894,10.283-30.674,10.283
		c-17.754,0-31.539-5.317-41.353-15.952c-9.815-10.635-14.722-25.62-14.722-44.956c0-18.809,5.199-34.027,15.601-45.659
		c10.4-11.63,24.008-17.446,40.825-17.446c22.148,0,35.625,11.309,40.43,33.926l-16.348,7.471v-2.9l-0.264-6.504
		c-1.114-14.12-7.646-21.182-19.6-21.182c-8.789,0-14.796,3.75-18.018,11.25c-3.223,7.501-4.834,21.476-4.834,41.924
		c0,19.103,1.303,32.08,3.911,38.936c2.606,6.855,7.572,10.283,14.897,10.283c8.613,0,12.92-4.804,12.92-14.414v-29.531h-17.314
		V507.271z"/>
	<path d="M393.546,568.882c-7.853,3.048-15.499,4.57-22.939,4.57c-11.017,0-17.813-3.428-20.391-10.283
		c-5.333,7.149-13.008,10.723-23.027,10.723c-18.692,0-28.037-8.671-28.037-26.016c0-13.184,8.554-22.44,25.664-27.773
		c15.702-4.922,23.555-10.839,23.555-17.754c0-9.082-4.513-13.623-13.535-13.623c-10.43,0-15.645,4.395-15.645,13.184
		c0,2.755,0.82,6.388,2.461,10.898l-15.908-3.076c-0.411-2.753-0.615-5.331-0.615-7.734c0-14.063,12.832-21.094,38.496-21.094
		c24.375,0,36.563,6.563,36.563,19.688v53.789c0,5.509,1.787,8.262,5.361,8.262c1.112,0,2.753-0.615,4.922-1.846L393.546,568.882z
		 M317.169,472.905l23.027-23.291h15.645l22.236,23.291h-23.906l-11.074-13.096l-13.799,13.096H317.169z M348.107,518.784
		c-1.993,2.285-4.307,4.19-6.943,5.713c-6.622,3.867-9.932,10.371-9.932,19.512c0,11.72,2.285,17.578,6.855,17.578
		c6.68,0,10.02-5.801,10.02-17.402V518.784z"/>
	<path d="M447.335,483.716v9.932h-14.238v62.666c0,3.927,1.259,5.889,3.779,5.889c1.815,0,2.9-1.318,3.252-3.955l9.141,0.879
		c-2.52,9.259-10.547,13.887-24.082,13.887c-16.114,0-24.17-6.855-24.17-20.566v-58.799h-10.723v-9.932h10.723v-15.645
		c11.074-3.046,21.767-7.44,32.08-13.184v28.828H447.335z"/>
	<path d="M520.988,539.614l12.92,3.779c-1.35,20.45-13.419,30.674-36.211,30.674c-29.531,0-44.297-14.735-44.297-44.209
		c0-14.296,3.925-26.016,11.777-35.156c7.851-9.141,17.899-13.711,30.146-13.711c25.605,0,38.409,16.523,38.409,49.57h-46.758
		c0,23.203,5.889,34.805,17.667,34.805c11.015,0,16.523-6.562,16.523-19.688C521.164,543.921,521.104,541.899,520.988,539.614z
		 M486.886,520.63h19.161c0-20.624-3.107-30.938-9.317-30.938c-5.625,0-8.789,7.646-9.492,22.939L486.886,520.63z"/>
	<path d="M636.828,568.882c-7.854,3.048-15.5,4.57-22.939,4.57c-11.018,0-17.813-3.428-20.391-10.283
		c-5.332,7.149-13.008,10.723-23.027,10.723c-18.692,0-28.037-8.671-28.037-26.016c0-13.184,8.554-22.44,25.664-27.773
		c15.701-4.922,23.555-10.839,23.555-17.754c0-9.082-4.514-13.623-13.535-13.623c-10.43,0-15.645,4.395-15.645,13.184
		c0,2.755,0.82,6.388,2.461,10.898l-15.908-3.076c-0.411-2.753-0.615-5.331-0.615-7.734c0-14.063,12.832-21.094,38.496-21.094
		c24.375,0,36.563,6.563,36.563,19.688v53.789c0,5.509,1.787,8.262,5.361,8.262c1.111,0,2.754-0.615,4.922-1.846L636.828,568.882z
		 M591.389,518.784c-1.992,2.285-4.307,4.19-6.943,5.713c-6.623,3.867-9.932,10.371-9.932,19.512c0,11.72,2.285,17.578,6.855,17.578
		c6.68,0,10.02-5.801,10.02-17.402V518.784z"/>
	<path d="M726.916,481.167v90.879h-32.08v-14.15c-7.383,10.547-16.875,15.82-28.477,15.82c-15.645,0-23.467-7.616-23.467-22.852
		v-67.412c10.779-0.468,21.475-1.23,32.08-2.285v68.906c0,5.977,1.814,8.965,5.449,8.965c9.609,0,14.414-10.312,14.414-30.938
		v-44.648C705.559,482.984,716.25,482.222,726.916,481.167z"/>
	<path d="M818.059,483.452l-26.104,35.42l29.971,53.174h-36.738l-16.611-29.004l-21.357,29.004h-12.305l28.389-38.496
		l-28.125-50.098h36.914l14.502,25.752l19.16-25.752H818.059z"/>
</g>
<g transform="translate(0.000000,1280.000000) scale(0.100000,-0.100000)">
	<path d="M1623.935,8440.282c-2.246-1.123-6.23-4.189-8.784-7.051c-13.989-15.01-20.22-42.383-32.168-141.748
		c-3.169-26.455-6.128-48.311-6.436-48.721c-0.405-0.508-11.948,4.092-25.635,10.01c-106.719,46.064-127.964,54.541-176.572,70.469
		c-14.194,4.697-35.85,9.6-42.383,9.6c-4.902,0-11.03-2.549-12.769-5.313c-2.144-3.369-1.631-14.6,0.923-23.896
		c9.292-33.193,45.137-112.128,71.792-158.193c12.051-20.732,32.373-49.219,32.373-45.342c0,0.615-4.287,8.271-9.6,17.051
		c-28.901,48.408-43.096,81.191-52.085,120.82c-7.148,31.66-8.574,52.695-3.979,58.926c2.754,3.779,8.779,4.189,17.056,1.123
		c17.051-6.123,84.561-38.193,121.631-57.803c37.886-20.02,71.997-41.055,71.997-44.424c0-0.918-1.533-7.861-3.472-15.322
		c-8.066-31.348-18.789-47.998-44.019-68.73c-13.887-11.338-22.056-17.158-69.546-49.219
		c-76.797-51.885-103.149-71.797-132.046-99.883c-27.881-27.168-47.9-55.557-59.746-84.971
		c-12.563-31.455-16.138-53.408-17.974-111.621c-1.123-34.316-2.656-50.566-6.641-69.043
		c-8.984-41.367-28.901-90.781-51.162-126.543c-18.179-29.199-20.22-32.871-23.184-40.332c-6.333-16.035-4.595-30.43,6.436-52.695
		c10.62-21.758,28.594-46.465,47.383-65.352c17.568-17.578,29.927-25.547,56.577-36.563c15.425-6.348,20.732-9.805,38.506-25.137
		c29.106-25.02,51.777-36.25,85.273-42.578c13.989-2.656,62.095-2.656,81.699,0c35.234,4.805,71.489,13.066,101.108,23.281
		c9.8,3.379,18.584,6.328,19.502,6.641c3.472,1.23,48.818-62.598,100.801-141.66c34.517-52.48,41.357-62.285,42.686-60.957
		c1.128,1.113-3.877,13.066-14.497,34.512c-29.619,59.961-67.407,120.605-104.888,168.203l-5.82,7.363l15.522,7.949
		c19.814,10.215,31.763,17.676,47.695,29.629c6.943,5.195,12.866,9.492,13.379,9.492c1.123,0,34.111-24.414,53.105-39.316
		c51.47-40.449,74.756-61.172,200.063-178.008c38.501-35.938,49.326-44.121,39.727-30.02
		c-13.687,20.117-59.336,70.977-101.514,113.047c-55.146,55.156-99.57,92.324-160.952,134.902
		c-8.374,5.723-15.723,10.625-16.338,10.938c-0.815,0.195,2.554,4.395,7.964,10.117c9.399,9.688,15.527,17.656,14.404,18.789
		c-1.128,1.113-4.902-0.82-20.122-10.84l-15.522-10.098l-11.846,7.246c-37.583,22.676-95.488,52.793-106.924,55.566l-3.066,0.703
		l2.041-2.246c2.964-3.359,11.44-9.18,40.85-28.184c34.214-21.953,63.833-41.66,63.833-42.48c0-1.133-35.85-20.938-55.864-30.957
		c-10.825-5.41-19.814-9.805-20.02-9.805c-0.2,0-7.148,7.363-15.522,16.445c-20.728,22.578-49.736,48.926-53.716,48.926
		c-3.374,0,0.405-5.41,30.737-43.809c12.051-15.332,21.855-28.184,21.753-28.496c-0.303-1.016-29.512-12.266-45.752-17.461
		c-49.121-15.938-92.422-18.496-135.825-7.871c-54.229,13.281-134.604,55.352-166.978,87.422
		c-11.641,11.543-14.81,19.609-12.256,31.66c1.533,7.344,9.702,24.512,21.655,45.449c23.794,41.875,28.491,54.629,23.691,63.926
		c-3.574,7.051-12.256,8.281-36.973,5.41c-16.953-1.934-25.43-1.621-27.471,1.23c-3.984,5.215,0.718,16.133,21.445,49.629
		c26.045,42.285,37.583,64.551,44.424,85.586c4.907,15.313,5.825,20.732,5.825,37.793c0,17.363-0.82,22.871-6.743,47.998
		c-5.205,22.266-7.046,33.398-7.046,42.275c0,31.66,17.871,65.059,61.274,115.098c13.481,15.42,46.265,47.9,62.603,61.787
		c54.438,46.572,118.672,81.602,174.434,95.283c18.589,4.492,34.316,7.051,64.746,10.313c44.731,4.805,61.787,7.764,80.171,14.092
		c21.035,7.256,30.024,12.158,40.542,21.963c8.579,7.969,13.892,16.133,17.363,26.65c2.451,7.559,2.759,9.707,2.759,24.619
		c0.103,19.199-1.841,30.332-9.297,52.588c-8.271,24.922-19.707,46.777-43.403,82.422c-16.03,24.307-18.687,28.691-17.666,29.717
		c2.554,2.549,34.414-19.609,158.091-110.4c178.208-130.615,237.139-177.597,297.798-237.138
		c43.916-43.193,74.858-79.043,118.262-137.354c17.666-23.799,29.106-39.727,77.412-108.252
		c32.988-46.885,53.208-73.633,57.803-76.406c2.144-1.426,2.246-1.328,1.533,2.051c-0.918,5-16.138,35.234-29.004,57.5
		c-82.622,143.799-202.314,287.793-330.581,397.676c-61.582,52.802-107.539,86.914-270.122,200.478
		c-27.778,19.502-62.505,43.916-77.104,54.326c-40.137,28.701-53.926,36.26-66.895,37.07
		C1629.653,8442.118,1626.997,8441.708,1623.935,8440.282z"/>
	<path d="M1425.81,7830.38c-15.015-1.328-37.173-4.902-47.998-7.656c-15.42-3.877-21.855-8.271-20.425-13.994
		c0.405-1.426,3.779-6.436,7.559-11.133c8.779-11.025,14.297-18.994,23.691-34.004c9.189-15.01,16.543-23.076,24.102-26.758
		c16.138-7.861,43.301-1.328,70.874,17.158c16.543,11.025,25.942,21.748,36.05,41.357c6.846,12.969,11.235,16.855,25.327,22.168
		l6.025,2.246l-3.877,1.221c-5.518,1.631-32.173,6.025-47.798,7.861C1483.408,7830.791,1440.107,7831.611,1425.81,7830.38z"/>
	<path d="M1578.999,7517.353c2.759-2.344,14.297-7.656,32.681-15c45.142-17.969,84.971-37.891,124.287-61.68
		c30.537-18.594,52.393-33.496,121.328-82.637c44.014-31.348,50.957-36.152,55.962-38.691c6.333-3.281,3.472,0.82-9.702,13.887
		c-16.133,15.82-22.876,21.855-44.014,39.414c-68.53,57.09-123.984,92.227-186.587,118.164
		c-30.635,12.773-74.858,26.348-89.766,27.676C1577.261,7518.994,1577.06,7518.994,1578.999,7517.353z"/>
</g>
<g>
	<g>
		<path d="M890.091,475.369c-0.106,16.399-1.481,34.001-11.575,47.611c-4.487,6.051-11.19,11.326-19.077,10.461
			c-7.199-0.79-11.98-8.41-14.859-14.232c-6.171-12.477-5.857-28.129-15.831-38.657c-10.106-10.668-24.593-1.605-27.452,10.411
			c-1.132,4.755,1.119,10.296,0,15c3.193-13.42,18.021-20.365,28.347-9.466c5.066,5.347,7.172,13.219,9.131,20.105
			c2.122,7.453,4.009,14.854,7.954,21.601c3.944,6.743,10.374,11.697,18.451,9.919c7.897-1.739,13.859-9.959,17.45-16.61
			c7.847-14.529,7.487-32.528,7.591-48.571c0.022-3.419,0.032-6.842-0.026-10.261C890.146,469.907,890.093,474.972,890.091,475.369
			L890.091,475.369z"/>
	</g>
</g>
<rect x="360.333" y="444.75" width="10.167" height="21.583"/>
</svg>
