<?xml version="1.0" encoding="utf-8"?>
<!-- Generator: Adobe Illustrator 16.0.3, SVG Export Plug-In . SVG Version: 6.00 Build 0)  -->
<!DOCTYPE svg PUBLIC "-//W3C//DTD SVG 1.1//EN" "http://www.w3.org/Graphics/SVG/1.1/DTD/svg11.dtd">
<svg version="1.1" id="Capa_1" xmlns="http://www.w3.org/2000/svg" xmlns:xlink="http://www.w3.org/1999/xlink" x="0px" y="0px"
	 width="800px" height="200px" viewBox="0 0 800 200" enable-background="new 0 0 800 200" xml:space="preserve">
<text transform="matrix(1 0 0 1 81.8179 172.0459)" font-family="'BritannicBold'" font-size="180">Gâteaux</text>
<g transform="translate(0.000000,1280.000000) scale(0.100000,-0.100000)">
	<path d="M362.593,12237.967c-7.148,31.66-8.574,52.695-3.979,58.926c0.815,1.118,2.041,1.787,3.428,2.285
		c-2.129,2.446-3.901,5.156-5.474,7.979c-1.714,2.344-3.052,4.907-4.263,7.539c-6.621,4.507-11.646,10.605-15.078,17.568
		c-2.148,0.332-4.063,0.576-5.269,0.576c-4.902,0-11.03-2.549-12.769-5.313c-2.144-3.369-1.631-14.6,0.923-23.896
		c9.292-33.193,45.137-112.129,71.792-158.193c12.051-20.732,32.373-49.219,32.373-45.342c0,0.615-4.287,8.271-9.6,17.051
		C385.776,12165.555,371.582,12198.338,362.593,12237.967z"/>
	<path d="M1408.364,11694.754c-0.918,5-16.138,35.234-29.004,57.5c-82.622,143.799-202.314,287.793-330.581,397.676
		c-61.582,52.803-107.539,86.914-270.122,200.479c-27.778,19.502-62.505,43.916-77.104,54.326
		c-40.137,28.701-53.926,36.26-66.895,37.07c-5.005,0.313-7.661-0.098-10.723-1.523c-2.246-1.123-6.23-4.189-8.784-7.051
		c-13.989-15.01-20.22-42.383-32.168-141.748c-3.169-26.455-6.128-48.311-6.436-48.721c-0.156-0.2,0.215-1.108-0.029-9.453
		c-1.465-17.021-2.041-18.32-4.956-31.279c-1.401-5.444-2.266-5.659-2.266-6.24c0-1.948-1.387-7.295-3.472-15.322
		c-8.066-31.348-18.789-47.998-44.019-68.73c-13.887-11.338-22.056-17.158-69.546-49.219
		c-76.797-51.885-103.149-71.797-132.046-99.883c-27.881-27.168-47.9-55.557-59.746-84.971
		c-12.563-31.455-16.138-53.408-17.974-111.621c-1.123-34.316-2.656-50.566-6.641-69.043c-8.984-41.366-28.901-90.78-51.162-126.542
		c-18.179-29.199-20.22-32.871-23.184-40.332c-6.333-16.035-4.595-30.43,6.436-52.695c10.62-21.758,28.594-46.465,47.383-65.352
		c17.568-17.578,29.927-25.547,56.577-36.563c15.425-6.348,20.732-9.805,38.506-25.137c29.106-25.02,51.777-36.25,85.273-42.578
		c13.989-2.656,62.095-2.656,81.699,0c35.234,4.805,71.489,13.066,101.108,23.281c9.8,3.379,18.584,6.328,19.502,6.641
		c3.472,1.23,48.818-62.598,100.801-141.66c34.517-52.48,41.357-62.285,42.686-60.957c1.128,1.113-3.877,13.066-14.497,34.512
		c-29.619,59.961-67.407,120.605-104.888,168.203l-5.82,7.363l15.522,7.949c19.814,10.215,31.763,17.676,47.695,29.629
		c6.943,5.195,12.866,9.492,13.379,9.492c1.123,0,34.111-24.414,53.105-39.316c51.47-40.449,74.756-61.172,200.063-178.008
		c38.501-35.938,49.326-44.121,39.727-30.02c-13.687,20.117-59.336,70.977-101.514,113.047
		c-55.146,55.156-99.57,92.324-160.952,134.902c-8.374,5.723-15.723,10.625-16.338,10.938c-0.815,0.195,2.554,4.395,7.964,10.117
		c9.399,9.688,15.527,17.656,14.404,18.789c-1.128,1.113-4.902-0.82-20.122-10.84l-15.522-10.098l-11.846,7.246
		c-37.583,22.676-95.488,52.793-106.924,55.566l-3.066,0.703l2.041-2.246c2.964-3.359,11.44-9.18,40.85-28.184
		c34.214-21.953,63.833-41.66,63.833-42.48c0-1.133-35.85-20.938-55.864-30.957c-10.825-5.41-19.814-9.805-20.02-9.805
		c-0.2,0-7.148,7.363-15.522,16.445c-20.728,22.578-49.736,48.926-53.716,48.926c-3.374,0,0.405-5.41,30.737-43.809
		c12.051-15.332,21.855-28.184,21.753-28.496c-0.303-1.016-29.512-12.266-45.752-17.461c-49.121-15.938-92.422-18.496-135.825-7.871
		c-54.229,13.281-134.604,55.352-166.978,87.422c-11.641,11.543-14.81,19.609-12.256,31.66c1.533,7.344,9.702,24.512,21.655,45.449
		c23.794,41.875,28.491,54.629,23.691,63.926c-3.574,7.051-12.256,8.281-36.973,5.41c-16.953-1.934-25.43-1.621-27.471,1.23
		c-3.984,5.215,0.718,16.133,21.445,49.629c26.045,42.285,37.583,64.551,44.424,85.585c4.907,15.313,5.825,20.732,5.825,37.793
		c0,17.363-0.82,22.871-6.743,47.998c-5.205,22.266-7.046,33.398-7.046,42.275c0,31.66,17.871,65.059,61.274,115.098
		c13.481,15.42,46.265,47.9,62.603,61.787c54.438,46.572,118.672,81.602,174.434,95.283c18.589,4.492,34.316,7.051,64.746,10.313
		c44.731,4.805,61.787,7.764,80.171,14.092c21.035,7.256,30.024,12.158,40.542,21.963c8.579,7.969,13.892,16.133,17.363,26.65
		c2.451,7.559,2.759,9.707,2.759,24.619c0.103,19.199-1.841,30.332-9.297,52.588c-8.271,24.922-19.707,46.777-43.403,82.422
		c-16.03,24.307-18.687,28.691-17.666,29.717c2.554,2.549,34.414-19.609,158.091-110.4
		c178.208-130.615,237.139-177.598,297.798-237.139c43.916-43.193,74.858-79.043,118.262-137.354
		c17.666-23.799,29.106-39.727,77.412-108.252c32.988-46.885,53.208-73.633,57.803-76.406
		C1408.974,11691.277,1409.077,11691.375,1408.364,11694.754z"/>
	<path d="M425.811,11830.379c-15.015-1.328-37.173-4.902-47.998-7.656c-15.42-3.877-21.855-8.271-20.425-13.994
		c0.405-1.426,3.779-6.436,7.559-11.133c8.779-11.025,14.297-18.994,23.691-34.004c9.189-15.01,16.543-23.076,24.102-26.758
		c16.138-7.861,43.301-1.328,70.874,17.158c16.543,11.025,25.942,21.748,36.05,41.357c6.846,12.969,11.235,16.855,25.327,22.168
		l6.025,2.246l-3.877,1.221c-5.518,1.631-32.173,6.025-47.798,7.861C483.408,11830.789,440.107,11831.609,425.811,11830.379z"/>
	<path d="M578.999,11517.353c2.759-2.344,14.297-7.656,32.681-15c45.142-17.969,84.971-37.891,124.287-61.68
		c30.537-18.594,52.393-33.496,121.328-82.637c44.014-31.348,50.957-36.152,55.962-38.691c6.333-3.281,3.472,0.82-9.702,13.887
		c-16.133,15.82-22.876,21.855-44.014,39.414c-68.53,57.09-123.984,92.227-186.587,118.164
		c-30.635,12.773-74.858,26.348-89.766,27.676C577.261,11518.993,577.061,11518.993,578.999,11517.353z"/>
</g>
<g>
	<g>
		<path d="M790.091,75.369c-0.106,16.399-1.481,34.001-11.575,47.611c-4.487,6.051-11.19,11.326-19.077,10.461
			c-7.199-0.79-11.98-8.41-14.859-14.232c-6.171-12.477-5.857-28.129-15.831-38.657c-10.106-10.668-24.593-1.605-27.452,10.411
			c-1.132,4.755,1.119,10.296,0,15c3.193-13.42,18.021-20.365,28.347-9.466c5.066,5.347,7.172,13.219,9.131,20.105
			c2.122,7.453,4.009,14.854,7.954,21.601c3.944,6.743,10.374,11.697,18.451,9.919c7.897-1.739,13.859-9.959,17.45-16.61
			c7.847-14.529,7.487-32.528,7.591-48.571c0.022-3.419,0.032-6.842-0.026-10.261C790.146,69.907,790.093,74.972,790.091,75.369
			L790.091,75.369z"/>
	</g>
</g>
<rect x="260.333" y="44.75" width="10.167" height="21.583"/>
<g>
	<path d="M94.68,57.787c0,0-0.38-0.361-1.046-0.992c-0.354-0.295-0.645-0.787-1.06-1.288c-0.434-0.5-0.747-1.155-1.161-1.839
		c-0.36-0.707-0.738-1.485-1.079-2.328c-0.341-0.843-0.685-1.739-0.97-2.686c-0.301-0.94-0.59-1.918-0.867-2.909
		c-0.289-0.984-0.536-2.039-0.78-3.041c-0.212-1.027-0.379-2.104-0.504-3.138c-0.095-1.041-0.188-2.065-0.173-3.06
		c-0.04-0.994,0.029-1.952,0.102-2.858c0.039-0.908,0.2-1.755,0.289-2.54c0.083-0.787,0.276-1.49,0.397-2.119
		c0.121-0.629,0.271-1.168,0.392-1.612c0.25-0.883,0.392-1.388,0.392-1.388s-0.073,0.519-0.202,1.427
		c-0.071,0.452-0.163,0.999-0.215,1.634c-0.049,0.635-0.164,1.342-0.205,2.121c-0.037,0.779-0.141,1.618-0.119,2.511
		c-0.013,0.891-0.01,1.829,0.05,2.796c0.01,0.97,0.159,1.961,0.251,2.972c0.134,1.007,0.298,2.002,0.517,3.02
		c0.241,1.034,0.458,2.02,0.739,3.017c0.272,0.995,0.505,1.977,0.777,2.912c0.262,0.939,0.528,1.839,0.809,2.684
		c0.279,0.844,0.597,1.623,0.902,2.334c0.365,0.676,0.606,1.367,0.962,1.876c0.346,0.521,0.574,1.033,0.896,1.367
		C94.352,57.378,94.68,57.787,94.68,57.787z"/>
</g>
<g>
	<path d="M27.447,41.282c0,0,0.509,0.354,1.4,0.973c0.454,0.297,0.95,0.734,1.533,1.224c0.288,0.249,0.61,0.5,0.922,0.791
		c0.301,0.302,0.618,0.62,0.948,0.951c0.682,0.646,1.318,1.436,2.027,2.244c0.681,0.829,1.377,1.727,2.038,2.694
		c0.647,0.977,1.328,1.98,1.915,3.063c0.637,1.055,1.163,2.189,1.737,3.299c0.498,1.146,1.032,2.276,1.453,3.432
		c0.47,1.137,0.821,2.295,1.186,3.406c0.343,1.118,0.632,2.212,0.874,3.255c0.223,1.048,0.461,2.031,0.598,2.957
		c0.169,0.918,0.292,1.765,0.355,2.522c0.077,0.754,0.157,1.408,0.173,1.953c0.047,1.084,0.073,1.705,0.073,1.705
		s-0.097-0.612-0.267-1.683c-0.065-0.537-0.204-1.18-0.348-1.918c-0.133-0.74-0.332-1.565-0.538-2.466
		c-0.186-0.905-0.476-1.865-0.752-2.884c-0.296-1.015-0.649-2.073-1.006-3.167c-0.384-1.086-0.785-2.207-1.247-3.324
		c-0.423-1.133-0.962-2.237-1.458-3.359c-0.554-1.094-1.06-2.214-1.675-3.253c-0.573-1.063-1.192-2.076-1.806-3.049
		c-0.632-0.958-1.253-1.882-1.877-2.731c-0.651-0.828-1.235-1.642-1.868-2.312c-0.608-0.694-1.164-1.331-1.705-1.846
		c-0.527-0.532-0.979-1.01-1.406-1.347C27.913,41.691,27.447,41.282,27.447,41.282z"/>
</g>
<g>
	<path d="M27.625,39.125c-0.794,0.661-1.797,1.171-2.87,1.123c-0.531-0.032-1.05-0.288-1.4-0.694
		c-0.348-0.404-0.574-0.917-0.659-1.438c-0.161-1.092,0.331-2.145,0.966-2.978c0.655-0.837,1.451-1.564,2.412-2.067l0.703-0.347
		c0.243-0.104,0.503-0.184,0.755-0.276c0.503-0.204,1.034-0.266,1.554-0.386c0.532-0.044,1.063-0.137,1.601-0.088
		c0.54-0.013,1.068,0.101,1.6,0.201c0.266,0.048,0.514,0.17,0.772,0.253c0.259,0.085,0.512,0.184,0.739,0.339
		c0.238,0.144,0.465,0.269,0.71,0.429c0.206,0.156,0.428,0.386,0.593,0.587c0.347,0.426,0.666,0.885,0.8,1.487
		c0.065,0.29,0.046,0.692-0.217,0.979c-0.26,0.287-0.584,0.341-0.872,0.409l-0.167,0.039l-0.111-0.16
		c-0.438-0.627-0.561-1.37-0.579-2.06c-0.016-0.698,0.063-1.382,0.184-2.052c0.254-1.336,0.662-2.624,1.103-3.888
		c0.431-1.262,0.936-2.521,1.459-3.738l0.959-1.809c0.341-0.588,0.747-1.131,1.118-1.699c1.582-2.201,3.589-4.1,5.888-5.554
		c2.291-1.478,4.922-2.389,7.577-2.871c2.655-0.472,5.411-0.675,8.123-0.067c1.341,0.31,2.69,0.858,3.765,1.832
		c0.244,0.266,0.528,0.5,0.734,0.796c0.2,0.317,0.401,0.569,0.595,0.944c0.126,0.316,0.278,0.588,0.384,0.939
		c0.077,0.367,0.23,0.739,0.226,1.106c0.153,1.479-0.423,2.978-1.36,4.038c-0.924,1.088-2.083,1.901-3.312,2.53
		c-1.221,0.622-2.603,1.03-3.916,1.258c-0.666,0.124-1.348,0.242-2.064,0.249c-0.706,0.001-1.485-0.066-2.182-0.52
		c-1.478-0.993-1.311-2.929-0.818-4.186c0.519-1.322,1.305-2.456,2.139-3.521c0.838-1.059,1.731-2.065,2.657-3.032
		c0.96-0.98,1.992-1.848,3.07-2.67c2.185-1.596,4.615-2.887,7.236-3.624c2.604-0.741,5.407-0.959,8.073-0.374
		c2.639,0.6,5.137,1.716,7.422,3.134c2.291,1.409,4.363,3.169,6.115,5.203c0.47,0.48,0.848,1.04,1.253,1.573
		c0.198,0.276,0.407,0.521,0.596,0.822c0.16,0.294,0.35,0.562,0.487,0.877c0.588,1.245,0.685,2.723,0.151,3.98
		c-0.502,1.264-1.357,2.329-2.271,3.293c-0.916,0.97-1.904,1.864-2.85,2.801c0.921-0.961,1.887-1.881,2.774-2.871
		c0.886-0.982,1.702-2.062,2.155-3.295c0.485-1.224,0.341-2.622-0.229-3.762c-0.133-0.292-0.338-0.569-0.503-0.854
		c-0.171-0.258-0.4-0.519-0.597-0.778c-0.413-0.515-0.796-1.054-1.272-1.516c-1.781-1.947-3.844-3.642-6.106-4.995
		c-2.253-1.355-4.696-2.401-7.26-2.949c-2.553-0.522-5.226-0.276-7.716,0.47c-2.501,0.752-4.836,2.008-6.943,3.557
		c-1.035,0.796-2.041,1.652-2.941,2.58c-0.911,0.96-1.782,1.953-2.591,2.985c-0.801,1.029-1.536,2.12-1.985,3.286
		c-0.212,0.57-0.331,1.212-0.275,1.716c0.083,0.621,0.291,1.083,0.744,1.359c0.43,0.289,1.041,0.367,1.652,0.358
		c0.617-0.007,1.254-0.117,1.895-0.241c1.308-0.237,2.5-0.602,3.657-1.189c1.134-0.586,2.189-1.345,2.986-2.295
		c0.82-0.933,1.262-2.123,1.15-3.307c0.011-0.305-0.118-0.561-0.16-0.847c-0.078-0.287-0.247-0.606-0.366-0.908
		c-0.114-0.212-0.319-0.494-0.472-0.741c-0.169-0.251-0.413-0.444-0.614-0.671c-0.902-0.828-2.093-1.333-3.331-1.624
		c-2.499-0.579-5.175-0.409-7.743,0.039c-2.574,0.457-5.081,1.313-7.281,2.717c-2.209,1.38-4.131,3.199-5.695,5.29
		c-0.364,0.542-0.767,1.063-1.1,1.621l-0.939,1.706c-0.545,1.22-1.05,2.428-1.498,3.679c-0.454,1.242-0.869,2.496-1.131,3.774
		c-0.125,0.638-0.206,1.282-0.201,1.916c0.005,0.629,0.117,1.263,0.446,1.744l-0.277-0.12c0.477-0.074,0.727-0.268,0.625-0.713
		c-0.083-0.425-0.359-0.872-0.666-1.25c-0.167-0.202-0.304-0.357-0.512-0.521l-0.628-0.387c-0.204-0.147-0.437-0.24-0.675-0.322
		c-0.237-0.082-0.461-0.203-0.709-0.253c-0.494-0.103-0.987-0.226-1.499-0.226c-0.508-0.061-1.017,0.017-1.527,0.044
		c-0.497,0.103-1.021,0.15-1.494,0.331c-0.241,0.082-0.485,0.146-0.725,0.242l-0.711,0.329c-0.905,0.443-1.713,1.137-2.361,1.926
		c-0.636,0.788-1.122,1.788-0.999,2.801c0.07,0.508,0.272,0.993,0.593,1.389c0.322,0.393,0.803,0.648,1.317,0.693
		C25.8,40.243,26.816,39.767,27.625,39.125z"/>
</g>
<g>
	<path d="M45.625,36.188c0,0,0.283,0.3,0.759,0.839c0.236,0.271,0.523,0.6,0.853,0.977c0.165,0.188,0.34,0.389,0.525,0.601
		c0.168,0.226,0.318,0.484,0.491,0.744c0.338,0.526,0.705,1.096,1.092,1.699c0.406,0.598,0.686,1.295,1.034,1.993
		c0.328,0.706,0.714,1.419,0.949,2.205c0.268,0.772,0.541,1.558,0.813,2.343c0.192,0.807,0.385,1.614,0.575,2.408
		c0.221,0.789,0.298,1.591,0.415,2.358c0.104,0.769,0.232,1.509,0.26,2.221c0.036,0.709,0.07,1.379,0.102,1.998
		c0.014,0.309,0.028,0.605,0.041,0.886c-0.012,0.282-0.023,0.55-0.034,0.802c-0.021,0.501-0.04,0.939-0.055,1.299
		c-0.034,0.719-0.068,1.128-0.068,1.128s-0.046-0.409-0.126-1.125c-0.085-0.714-0.127-1.736-0.318-2.947
		c-0.082-0.606-0.171-1.262-0.265-1.956c-0.084-0.694-0.282-1.409-0.403-2.16c-0.139-0.748-0.271-1.523-0.488-2.291
		c-0.196-0.773-0.395-1.558-0.593-2.343c-0.254-0.768-0.509-1.536-0.759-2.291c-0.223-0.767-0.548-1.479-0.844-2.177
		c-0.32-0.684-0.528-1.405-0.87-2.004c-0.325-0.613-0.632-1.192-0.916-1.727c-0.144-0.269-0.281-0.527-0.411-0.772
		c-0.154-0.235-0.3-0.458-0.438-0.667c-0.275-0.418-0.515-0.783-0.712-1.084C45.838,36.541,45.625,36.188,45.625,36.188z"/>
</g>
<g>
	<path d="M73.667,32.167c0,0,0.367,0.851,0.789,2.157c0.43,1.304,0.92,3.063,1.332,4.84c0.461,1.756,0.846,3.532,1.072,4.886
		c0.234,1.352,0.307,2.284,0.307,2.284s-0.394-0.832-0.859-2.125c-0.473-1.291-1.021-3.043-1.493-4.814
		c-0.405-1.779-0.732-3.576-0.916-4.938C73.709,33.094,73.667,32.167,73.667,32.167z"/>
</g>
<g>
	<path d="M62.334,32c0,0,0.233,0.763,0.452,1.918c0.056,0.289,0.117,0.602,0.167,0.934c0.045,0.334,0.147,0.67,0.206,1.027
		c0.147,0.708,0.268,1.466,0.39,2.224c0.167,0.749,0.338,1.497,0.463,2.209c0.083,0.351,0.099,0.709,0.2,1.023
		c0.091,0.317,0.166,0.621,0.234,0.903c0.279,1.126,0.389,1.929,0.389,1.929s-0.418-0.666-0.932-1.742
		c-0.13-0.268-0.27-0.56-0.405-0.874c-0.152-0.309-0.228-0.659-0.336-1.014c-0.213-0.711-0.403-1.481-0.595-2.25
		c-0.106-0.786-0.214-1.571-0.28-2.309c-0.09-0.739-0.084-1.422-0.07-2.011C62.234,32.792,62.334,32,62.334,32z"/>
</g>
</svg>
