<?xml version="1.0" encoding="utf-8"?>
<!-- Generator: Adobe Illustrator 16.0.3, SVG Export Plug-In . SVG Version: 6.00 Build 0)  -->
<!DOCTYPE svg PUBLIC "-//W3C//DTD SVG 1.1//EN" "http://www.w3.org/Graphics/SVG/1.1/DTD/svg11.dtd">
<svg version="1.1" id="Capa_1" xmlns="http://www.w3.org/2000/svg" xmlns:xlink="http://www.w3.org/1999/xlink" x="0px" y="0px"
	 width="800px" height="200px" viewBox="0 0 800 200" enable-background="new 0 0 800 200" xml:space="preserve">
<g>
	<path d="M139.957,106.009h49.395v64.775h-11.074l-3.779-8.262c-9.668,6.855-19.894,10.283-30.674,10.283
		c-17.754,0-31.539-5.317-41.353-15.952c-9.815-10.635-14.722-25.62-14.722-44.956c0-18.808,5.199-34.027,15.601-45.659
		c10.4-11.63,24.008-17.446,40.825-17.446c22.148,0,35.625,11.309,40.43,33.926l-16.348,7.471v-2.9l-0.264-6.504
		c-1.114-14.12-7.646-21.182-19.6-21.182c-8.789,0-14.796,3.75-18.018,11.25c-3.223,7.501-4.834,21.476-4.834,41.923
		c0,19.103,1.303,32.08,3.911,38.936c2.606,6.855,7.572,10.283,14.897,10.283c8.613,0,12.92-4.804,12.92-14.414V118.05h-17.314
		V106.009z"/>
	<path d="M294.38,167.62c-7.853,3.048-15.499,4.57-22.939,4.57c-11.017,0-17.813-3.428-20.391-10.283
		c-5.333,7.149-13.008,10.723-23.027,10.723c-18.692,0-28.037-8.671-28.037-26.016c0-13.184,8.554-22.44,25.664-27.773
		c15.702-4.922,23.555-10.839,23.555-17.754c0-9.081-4.513-13.623-13.535-13.623c-10.43,0-15.645,4.395-15.645,13.184
		c0,2.754,0.82,6.387,2.461,10.898l-15.908-3.076c-0.411-2.753-0.615-5.331-0.615-7.734c0-14.063,12.832-21.094,38.496-21.094
		c24.375,0,36.563,6.563,36.563,19.688v53.789c0,5.509,1.787,8.262,5.361,8.262c1.112,0,2.753-0.615,4.922-1.846L294.38,167.62z
		 M218.003,71.644l23.027-23.291h15.645l22.236,23.291h-23.906l-11.074-13.096l-13.799,13.096H218.003z M248.941,117.522
		c-1.993,2.285-4.307,4.19-6.943,5.713c-6.622,3.867-9.932,10.371-9.932,19.512c0,11.72,2.285,17.578,6.855,17.578
		c6.68,0,10.02-5.801,10.02-17.402V117.522z"/>
	<path d="M348.169,82.455v9.932h-14.238v62.666c0,3.927,1.259,5.889,3.779,5.889c1.815,0,2.9-1.318,3.252-3.955l9.141,0.879
		c-2.52,9.259-10.547,13.887-24.082,13.887c-16.114,0-24.17-6.855-24.17-20.566V92.386h-10.723v-9.932h10.723V66.81
		c11.074-3.046,21.767-7.44,32.08-13.184v28.828H348.169z"/>
	<path d="M421.821,138.353l12.92,3.779c-1.349,20.45-13.418,30.674-36.21,30.674c-29.531,0-44.297-14.735-44.297-44.209
		c0-14.296,3.925-26.016,11.777-35.156c7.851-9.141,17.899-13.711,30.146-13.711c25.605,0,38.408,16.523,38.408,49.57h-46.757
		c0,23.203,5.889,34.805,17.666,34.805c11.016,0,16.523-6.562,16.523-19.688C421.997,142.659,421.938,140.638,421.821,138.353z
		 M387.72,119.368h19.16c0-20.624-3.106-30.937-9.316-30.937c-5.625,0-8.789,7.646-9.492,22.939L387.72,119.368z"/>
	<path d="M537.661,167.62c-7.853,3.048-15.499,4.57-22.939,4.57c-11.017,0-17.813-3.428-20.391-10.283
		c-5.332,7.149-13.008,10.723-23.027,10.723c-18.691,0-28.037-8.671-28.037-26.016c0-13.184,8.555-22.44,25.664-27.773
		c15.702-4.922,23.555-10.839,23.555-17.754c0-9.081-4.513-13.623-13.535-13.623c-10.43,0-15.645,4.395-15.645,13.184
		c0,2.754,0.82,6.387,2.461,10.898l-15.908-3.076c-0.41-2.753-0.615-5.331-0.615-7.734c0-14.063,12.832-21.094,38.496-21.094
		c24.375,0,36.563,6.563,36.563,19.688v53.789c0,5.509,1.787,8.262,5.361,8.262c1.112,0,2.754-0.615,4.922-1.846L537.661,167.62z
		 M492.222,117.522c-1.992,2.285-4.307,4.19-6.943,5.713c-6.622,3.867-9.932,10.371-9.932,19.512c0,11.72,2.285,17.578,6.855,17.578
		c6.68,0,10.02-5.801,10.02-17.402V117.522z"/>
	<path d="M627.749,79.906v90.878h-32.08v-14.15c-7.383,10.547-16.875,15.82-28.477,15.82c-15.645,0-23.467-7.616-23.467-22.852
		V82.191c10.78-0.468,21.475-1.23,32.08-2.285v68.906c0,5.977,1.815,8.965,5.449,8.965c9.609,0,14.414-10.312,14.414-30.938V82.191
		C606.392,81.723,617.084,80.96,627.749,79.906z"/>
	<path d="M718.892,82.191l-26.104,35.419l29.971,53.174h-36.738l-16.611-29.004l-21.357,29.004h-12.305l28.389-38.496
		l-28.125-50.097h36.914l14.502,25.751l19.16-25.751H718.892z"/>
</g>
<g transform="translate(0.000000,1280.000000) scale(0.100000,-0.100000)">
	<path d="M362.593,12237.967c-7.148,31.66-8.574,52.695-3.979,58.926c0.815,1.118,2.041,1.787,3.428,2.285
		c-2.129,2.446-3.901,5.156-5.474,7.979c-1.714,2.344-3.052,4.907-4.263,7.539c-6.621,4.507-11.646,10.605-15.078,17.568
		c-2.148,0.332-4.063,0.576-5.269,0.576c-4.902,0-11.03-2.549-12.769-5.313c-2.144-3.369-1.631-14.6,0.923-23.896
		c9.292-33.193,45.137-112.129,71.792-158.193c12.051-20.732,32.373-49.219,32.373-45.342c0,0.615-4.287,8.271-9.6,17.051
		C385.776,12165.555,371.582,12198.338,362.593,12237.967z"/>
	<path d="M1408.364,11694.754c-0.918,5-16.138,35.234-29.004,57.5c-82.622,143.799-202.314,287.793-330.581,397.676
		c-61.582,52.803-107.539,86.914-270.122,200.479c-27.778,19.502-62.505,43.916-77.104,54.326
		c-40.137,28.701-53.926,36.26-66.895,37.07c-5.005,0.313-7.661-0.098-10.723-1.523c-2.246-1.123-6.23-4.189-8.784-7.051
		c-13.989-15.01-20.22-42.383-32.168-141.748c-3.169-26.455-6.128-48.311-6.436-48.721c-0.156-0.2,0.215-1.108-0.029-9.453
		c-1.465-17.021-2.041-18.32-4.956-31.279c-1.401-5.444-2.266-5.659-2.266-6.24c0-1.948-1.387-7.295-3.472-15.322
		c-8.066-31.348-18.789-47.998-44.019-68.73c-13.887-11.338-22.056-17.158-69.546-49.219
		c-76.797-51.885-103.149-71.797-132.046-99.883c-27.881-27.168-47.9-55.557-59.746-84.971
		c-12.563-31.455-16.138-53.408-17.974-111.621c-1.123-34.316-2.656-50.566-6.641-69.043c-8.984-41.366-28.901-90.78-51.162-126.542
		c-18.179-29.199-20.22-32.871-23.184-40.332c-6.333-16.035-4.595-30.43,6.436-52.695c10.62-21.758,28.594-46.465,47.383-65.352
		c17.568-17.578,29.927-25.547,56.577-36.563c15.425-6.348,20.732-9.805,38.506-25.137c29.106-25.02,51.777-36.25,85.273-42.578
		c13.989-2.656,62.095-2.656,81.699,0c35.234,4.805,71.489,13.066,101.108,23.281c9.8,3.379,18.584,6.328,19.502,6.641
		c3.472,1.23,48.818-62.598,100.801-141.66c34.517-52.48,41.357-62.285,42.686-60.957c1.128,1.113-3.877,13.066-14.497,34.512
		c-29.619,59.961-67.407,120.605-104.888,168.203l-5.82,7.363l15.522,7.949c19.814,10.215,31.763,17.676,47.695,29.629
		c6.943,5.195,12.866,9.492,13.379,9.492c1.123,0,34.111-24.414,53.105-39.316c51.47-40.449,74.756-61.172,200.063-178.008
		c38.501-35.938,49.326-44.121,39.727-30.02c-13.687,20.117-59.336,70.977-101.514,113.047
		c-55.146,55.156-99.57,92.324-160.952,134.902c-8.374,5.723-15.723,10.625-16.338,10.938c-0.815,0.195,2.554,4.395,7.964,10.117
		c9.399,9.688,15.527,17.656,14.404,18.789c-1.128,1.113-4.902-0.82-20.122-10.84l-15.522-10.098l-11.846,7.246
		c-37.583,22.676-95.488,52.793-106.924,55.566l-3.066,0.703l2.041-2.246c2.964-3.359,11.44-9.18,40.85-28.184
		c34.214-21.953,63.833-41.66,63.833-42.48c0-1.133-35.85-20.938-55.864-30.957c-10.825-5.41-19.814-9.805-20.02-9.805
		c-0.2,0-7.148,7.363-15.522,16.445c-20.728,22.578-49.736,48.926-53.716,48.926c-3.374,0,0.405-5.41,30.737-43.809
		c12.051-15.332,21.855-28.184,21.753-28.496c-0.303-1.016-29.512-12.266-45.752-17.461c-49.121-15.938-92.422-18.496-135.825-7.871
		c-54.229,13.281-134.604,55.352-166.978,87.422c-11.641,11.543-14.81,19.609-12.256,31.66c1.533,7.344,9.702,24.512,21.655,45.449
		c23.794,41.875,28.491,54.629,23.691,63.926c-3.574,7.051-12.256,8.281-36.973,5.41c-16.953-1.934-25.43-1.621-27.471,1.23
		c-3.984,5.215,0.718,16.133,21.445,49.629c26.045,42.285,37.583,64.551,44.424,85.585c4.907,15.313,5.825,20.732,5.825,37.793
		c0,17.363-0.82,22.871-6.743,47.998c-5.205,22.266-7.046,33.398-7.046,42.275c0,31.66,17.871,65.059,61.274,115.098
		c13.481,15.42,46.265,47.9,62.603,61.787c54.438,46.572,118.672,81.602,174.434,95.283c18.589,4.492,34.316,7.051,64.746,10.313
		c44.731,4.805,61.787,7.764,80.171,14.092c21.035,7.256,30.024,12.158,40.542,21.963c8.579,7.969,13.892,16.133,17.363,26.65
		c2.451,7.559,2.759,9.707,2.759,24.619c0.103,19.199-1.841,30.332-9.297,52.588c-8.271,24.922-19.707,46.777-43.403,82.422
		c-16.03,24.307-18.687,28.691-17.666,29.717c2.554,2.549,34.414-19.609,158.091-110.4
		c178.208-130.615,237.139-177.598,297.798-237.139c43.916-43.193,74.858-79.043,118.262-137.354
		c17.666-23.799,29.106-39.727,77.412-108.252c32.988-46.885,53.208-73.633,57.803-76.406
		C1408.974,11691.277,1409.077,11691.375,1408.364,11694.754z"/>
	<path d="M425.811,11830.379c-15.015-1.328-37.173-4.902-47.998-7.656c-15.42-3.877-21.855-8.271-20.425-13.994
		c0.405-1.426,3.779-6.436,7.559-11.133c8.779-11.025,14.297-18.994,23.691-34.004c9.189-15.01,16.543-23.076,24.102-26.758
		c16.138-7.861,43.301-1.328,70.874,17.158c16.543,11.025,25.942,21.748,36.05,41.357c6.846,12.969,11.235,16.855,25.327,22.168
		l6.025,2.246l-3.877,1.221c-5.518,1.631-32.173,6.025-47.798,7.861C483.408,11830.789,440.107,11831.609,425.811,11830.379z"/>
	<path d="M578.999,11517.353c2.759-2.344,14.297-7.656,32.681-15c45.142-17.969,84.971-37.891,124.287-61.68
		c30.537-18.594,52.393-33.496,121.328-82.637c44.014-31.348,50.957-36.152,55.962-38.691c6.333-3.281,3.472,0.82-9.702,13.887
		c-16.133,15.82-22.876,21.855-44.014,39.414c-68.53,57.09-123.984,92.227-186.587,118.164
		c-30.635,12.773-74.858,26.348-89.766,27.676C577.261,11518.993,577.061,11518.993,578.999,11517.353z"/>
</g>
<g>
	<g>
		<path d="M790.091,75.369c-0.106,16.399-1.481,34.001-11.575,47.611c-4.487,6.051-11.19,11.326-19.077,10.461
			c-7.199-0.79-11.98-8.41-14.859-14.232c-6.171-12.477-5.857-28.129-15.831-38.657c-10.106-10.668-24.593-1.605-27.452,10.411
			c-1.132,4.755,1.119,10.296,0,15c3.193-13.42,18.021-20.365,28.347-9.466c5.066,5.347,7.172,13.219,9.131,20.105
			c2.122,7.453,4.009,14.854,7.954,21.601c3.944,6.743,10.374,11.697,18.451,9.919c7.897-1.739,13.859-9.959,17.45-16.61
			c7.847-14.529,7.487-32.528,7.591-48.571c0.022-3.419,0.032-6.842-0.026-10.261C790.146,69.907,790.093,74.972,790.091,75.369
			L790.091,75.369z"/>
	</g>
</g>
<rect x="260.333" y="44.75" width="10.167" height="21.583"/>
<g>
	<path d="M94.68,57.787c0,0-0.482-0.267-1.266-0.789c-0.406-0.229-0.813-0.679-1.315-1.165c-0.54-0.493-0.944-1.102-1.469-1.78
		c-0.461-0.691-0.938-1.471-1.36-2.315c-0.421-0.848-0.829-1.754-1.178-2.701c-0.367-0.942-0.691-1.928-0.997-2.907l-0.229-0.738
		l-0.131-0.439l-0.096-0.378l-0.38-1.521c-0.21-1.039-0.404-2.238-0.492-3.315c-0.072-1.087-0.131-2.158-0.059-3.19
		c0.021-1.034,0.149-2.023,0.295-2.953c0.116-0.933,0.369-1.792,0.557-2.583c0.186-0.793,0.484-1.492,0.698-2.114
		c0.203-0.625,0.465-1.147,0.668-1.577c0.409-0.858,0.687-1.328,0.687-1.328s0.062,0.554,0.093,1.488
		c0.018,0.462,0.038,1.024,0.062,1.669c0.044,0.641,0.034,1.353,0.096,2.126c0.063,0.772,0.05,1.599,0.148,2.466
		c0.061,0.868,0.124,1.773,0.243,2.702c0.067,0.932,0.25,1.877,0.366,2.841c0.046,0.491,0.185,0.933,0.251,1.407
		c0.096,0.479,0.13,0.909,0.278,1.436c0.229,0.999,0.458,1.998,0.683,2.981c0.244,1.006,0.441,1.98,0.648,2.915
		c0.198,0.938,0.4,1.827,0.601,2.667c0.198,0.841,0.417,1.619,0.621,2.347c0.114,0.354,0.234,0.692,0.332,1.026
		c0.09,0.346,0.201,0.642,0.322,0.909c0.258,0.535,0.37,1.09,0.641,1.49C94.453,57.284,94.68,57.787,94.68,57.787z"/>
</g>
<g>
	<path d="M27.447,41.282c0,0,0.594,0.245,1.584,0.738c0.501,0.229,1.079,0.584,1.733,1.029c0.326,0.221,0.693,0.448,1.049,0.711
		c0.343,0.275,0.703,0.565,1.079,0.868c0.77,0.598,1.492,1.349,2.28,2.135c0.757,0.807,1.52,1.698,2.25,2.659
		c0.717,0.97,1.445,1.99,2.077,3.086c0.688,1.067,1.23,2.232,1.825,3.371c0.506,1.178,1.057,2.338,1.452,3.537
		c0.454,1.176,0.782,2.375,1.099,3.529c0.293,1.162,0.532,2.296,0.709,3.378c0.155,1.088,0.31,2.109,0.354,3.07
		c0.072,0.954,0.095,1.83,0.067,2.609c-0.002,0.775-0.033,1.45-0.1,2.007c-0.113,1.112-0.226,1.738-0.226,1.738
		s-0.236-0.606-0.565-1.649c-0.148-0.524-0.398-1.147-0.622-1.864c-0.224-0.717-0.522-1.513-0.826-2.378
		c-0.279-0.87-0.652-1.792-0.997-2.771c-0.36-0.976-0.764-1.994-1.17-3.044c-0.432-1.043-0.856-2.123-1.334-3.2
		c-0.449-1.09-0.971-2.164-1.458-3.253c-0.534-1.064-1.024-2.155-1.587-3.182c-0.284-0.512-0.527-1.045-0.812-1.542
		c-0.286-0.497-0.568-0.989-0.833-1.483c-0.562-0.963-1.117-1.895-1.665-2.765c-0.572-0.85-1.071-1.704-1.615-2.421
		c-0.52-0.748-0.987-1.442-1.448-2.01c-0.456-0.576-0.826-1.135-1.206-1.541C27.827,41.8,27.447,41.282,27.447,41.282z"/>
</g>
<g>
	<path d="M27.625,39.125c-0.765,0.7-1.742,1.276-2.883,1.279c-0.566-0.006-1.159-0.262-1.565-0.696
		c-0.402-0.422-0.665-0.992-0.775-1.536c-0.223-1.242,0.288-2.381,0.927-3.294c0.328-0.461,0.702-0.883,1.113-1.268
		c0.422-0.383,0.851-0.729,1.402-1.021l0.693-0.369c0.249-0.116,0.538-0.216,0.808-0.323c0.554-0.237,1.096-0.316,1.655-0.459
		c0.567-0.065,1.133-0.175,1.718-0.141c0.582-0.027,1.165,0.078,1.752,0.175c0.294,0.047,0.576,0.171,0.866,0.258
		c0.29,0.09,0.575,0.196,0.838,0.363c0.283,0.163,0.509,0.275,0.836,0.489c0.086,0.061,0.235,0.187,0.386,0.33
		c0.114,0.116,0.23,0.231,0.333,0.353c0.41,0.499,0.797,0.974,1.014,1.847c0.05,0.213,0.072,0.495,0.027,0.796
		c-0.046,0.318-0.204,0.659-0.436,0.928c-0.512,0.544-0.986,0.603-1.393,0.707l-0.664,0.17l-0.473-0.663
		c-0.609-0.854-0.751-1.765-0.794-2.549c-0.036-0.798,0.037-1.545,0.148-2.265c0.232-1.432,0.639-2.769,1.066-4.064l0.322-0.955
		l0.181-0.531l0.18-0.466c0.248-0.624,0.461-1.236,0.736-1.871l0.998-1.961c0.355-0.634,0.767-1.208,1.152-1.814
		c1.628-2.353,3.741-4.391,6.172-5.967c2.421-1.601,5.242-2.611,8.022-3.147c2.789-0.536,5.678-0.751,8.716-0.091
		c1.501,0.346,3.092,0.967,4.429,2.171c0.31,0.325,0.653,0.623,0.915,0.99l0.379,0.565l0.185,0.286l0.09,0.144
		c0.038,0.076-0.052-0.118,0.09,0.178l0.013,0.029l0.025,0.057l0.2,0.458l0.1,0.229l0.05,0.115l0.057,0.187
		c0.128,0.49,0.318,1.039,0.321,1.5c0.21,1.928-0.578,3.888-1.692,5.138c-1.109,1.299-2.423,2.201-3.792,2.9
		c-0.694,0.332-1.398,0.636-2.139,0.863c-0.366,0.121-0.743,0.224-1.131,0.306c-0.415,0.1-0.671,0.14-1.035,0.213
		c-0.705,0.128-1.456,0.262-2.325,0.271c-0.852-0.008-1.893-0.055-3.006-0.763c-0.542-0.338-1.022-0.876-1.308-1.429l-0.202-0.42
		c-0.034-0.096,0.042,0.14-0.082-0.229l-0.008-0.03l-0.017-0.06l-0.033-0.121l-0.066-0.241c-0.022-0.078-0.055-0.302-0.074-0.449
		c-0.044-0.333-0.065-0.687-0.037-0.907c0.02-0.25,0.028-0.517,0.083-0.738c0.081-0.476,0.217-0.893,0.36-1.303
		c0.617-1.574,1.499-2.77,2.387-3.887c0.446-0.556,0.909-1.085,1.359-1.588c0.514-0.575,0.904-0.985,1.416-1.505
		c1.059-1.06,2.134-1.938,3.283-2.794c2.315-1.653,4.891-2.985,7.686-3.72c2.774-0.743,5.776-0.933,8.623-0.263L76.34,7.64
		l0.133,0.03l0.066,0.015l0.102,0.029l0.029,0.01l0.237,0.08l0.946,0.322c0.316,0.115,0.624,0.207,0.949,0.34l0.988,0.449
		c0.664,0.294,1.315,0.599,1.901,0.963c0.596,0.36,1.226,0.664,1.782,1.082c2.326,1.512,4.404,3.374,6.139,5.516
		c0.465,0.506,0.839,1.092,1.239,1.652c0.203,0.302,0.382,0.518,0.604,0.889c0.156,0.306,0.324,0.556,0.47,0.908
		c0.64,1.414,0.652,3.038,0.042,4.359c-0.586,1.319-1.495,2.376-2.47,3.301c-0.973,0.933-2.005,1.774-2.998,2.665
		c0.873-1.008,1.795-1.98,2.626-3.007c0.826-1.022,1.588-2.109,1.956-3.287c0.409-1.161,0.181-2.412-0.337-3.383
		c-0.124-0.255-0.351-0.55-0.521-0.823c-0.139-0.188-0.397-0.478-0.589-0.711c-0.419-0.489-0.807-1-1.287-1.437
		c-1.798-1.839-3.855-3.433-6.083-4.682c-0.534-0.352-1.132-0.584-1.695-0.877c-0.568-0.304-1.143-0.52-1.713-0.729l-0.851-0.328
		c-0.297-0.102-0.636-0.18-0.952-0.27l-0.962-0.269l-0.24-0.068l-0.03-0.008c-0.073-0.021,0.065,0.018,0.041,0.013l-0.056-0.01
		l-0.112-0.019l-0.446-0.077c-2.373-0.438-4.846-0.162-7.166,0.582c-2.327,0.753-4.516,1.969-6.493,3.46
		c-0.964,0.762-1.927,1.607-2.728,2.456c-0.411,0.438-0.92,1.011-1.279,1.442c-0.423,0.502-0.822,0.988-1.195,1.482
		c-0.748,0.976-1.385,2.006-1.737,2.919c-0.07,0.221-0.14,0.438-0.166,0.621c-0.034,0.162-0.026,0.409-0.033,0.341
		c0.002,0.018-0.038-0.038-0.014,0.045l0.068,0.24l0.034,0.12l0.018,0.06l0.008,0.03c-0.117-0.35-0.03-0.095-0.055-0.173
		c0.01,0.008,0.017,0.017,0.02,0.028c0.021,0.036-0.001,0.012,0.024,0.023c0.012,0.033,0.362,0.132,0.828,0.114
		c0.464-0.005,1.033-0.1,1.634-0.219c0.289-0.061,0.688-0.134,0.919-0.199c0.263-0.057,0.527-0.131,0.792-0.224
		c0.532-0.166,1.05-0.4,1.556-0.644c0.994-0.516,1.894-1.186,2.505-1.925c0.644-0.743,0.873-1.472,0.819-2.206
		c0.019-0.212-0.074-0.291-0.065-0.453l-0.002-0.056l-0.048-0.115l-0.098-0.229l-0.195-0.459l-0.024-0.058l-0.012-0.029
		c0.131,0.279,0.03,0.068,0.056,0.126l-0.046-0.065l-0.09-0.131l-0.168-0.27c-0.115-0.18-0.299-0.309-0.433-0.478
		c-0.641-0.598-1.59-1.029-2.668-1.284c-2.173-0.527-4.716-0.37-7.149,0.015c-2.449,0.403-4.766,1.16-6.836,2.441
		c-2.076,1.258-3.893,2.938-5.41,4.876c-0.35,0.502-0.746,0.994-1.066,1.506l-0.9,1.553c-0.284,0.572-0.542,1.208-0.815,1.809
		l-0.202,0.457l-0.159,0.408l-0.361,0.921c-0.469,1.211-0.883,2.416-1.167,3.598c-0.134,0.588-0.222,1.169-0.237,1.703
		c-0.02,0.535,0.073,1,0.231,1.254l-1.136-0.492c0.093-0.009,0.169-0.056,0.014,0.081c-0.143,0.173-0.098,0.346-0.101,0.25
		c-0.001-0.154-0.208-0.584-0.452-0.891c-0.06-0.084-0.126-0.156-0.189-0.232c-0.036-0.04-0.076-0.093-0.197-0.193l-0.502-0.326
		c-0.169-0.136-0.37-0.221-0.576-0.299c-0.206-0.078-0.396-0.196-0.616-0.248c-0.438-0.105-0.876-0.237-1.347-0.25
		c-0.461-0.075-0.935-0.016-1.41-0.009c-0.458,0.081-0.971,0.111-1.393,0.258c-0.223,0.068-0.438,0.111-0.672,0.195l-0.722,0.308
		c-0.392,0.159-0.815,0.438-1.194,0.723c-0.385,0.291-0.746,0.621-1.063,0.982c-0.319,0.36-0.59,0.758-0.779,1.182
		c-0.19,0.415-0.288,0.893-0.258,1.303c0.044,0.484,0.209,0.913,0.476,1.291c0.266,0.365,0.673,0.62,1.152,0.69
		C25.745,40.139,26.786,39.729,27.625,39.125z"/>
</g>
<g>
	<path d="M45.625,36.188c0,0,0.386,0.222,0.997,0.658c0.302,0.22,0.68,0.48,1.074,0.809c0.201,0.161,0.415,0.332,0.64,0.513
		c0.213,0.2,0.411,0.443,0.634,0.684c0.434,0.491,0.897,1.044,1.373,1.652c0.494,0.606,0.83,1.289,1.25,1.995
		c0.397,0.709,0.827,1.445,1.102,2.249c0.316,0.789,0.6,1.607,0.886,2.423c0.197,0.838,0.399,1.674,0.557,2.505
		c0.199,0.824,0.246,1.657,0.308,2.457c0.047,0.802,0.121,1.572,0.078,2.308c-0.037,0.736-0.091,1.429-0.157,2.065
		c-0.039,0.319-0.065,0.623-0.11,0.911c-0.063,0.289-0.123,0.563-0.179,0.819c-0.103,0.512-0.234,0.956-0.333,1.319
		c-0.205,0.726-0.369,1.133-0.369,1.133s-0.186-0.413-0.427-1.12c-0.118-0.354-0.271-0.781-0.4-1.268
		c-0.129-0.487-0.303-1.031-0.493-1.618c-0.179-0.588-0.356-1.221-0.523-1.888c-0.154-0.669-0.408-1.354-0.585-2.073
		c-0.193-0.715-0.356-1.459-0.595-2.192c-0.228-0.736-0.417-1.492-0.612-2.246c-0.239-0.736-0.483-1.471-0.686-2.21
		c-0.184-0.75-0.465-1.438-0.691-2.133c-0.249-0.676-0.4-1.412-0.654-2.003c-0.237-0.608-0.448-1.204-0.636-1.773
		c-0.093-0.291-0.182-0.568-0.267-0.833c-0.113-0.266-0.221-0.518-0.322-0.754c-0.21-0.468-0.36-0.901-0.492-1.252
		C45.735,36.619,45.625,36.188,45.625,36.188z"/>
</g>
<g>
	<path d="M73.667,32.167c0,0,0.049,0.047,0.142,0.135c0.087,0.089,0.242,0.214,0.384,0.385c0.311,0.336,0.706,0.829,1.108,1.437
		c0.803,1.216,1.536,2.917,1.947,4.694c0.46,1.729,0.598,3.541,0.451,4.992c-0.074,0.725-0.194,1.351-0.311,1.802
		c-0.045,0.221-0.124,0.409-0.159,0.531c-0.041,0.124-0.062,0.19-0.062,0.19s-0.051-0.044-0.146-0.126
		c-0.09-0.084-0.248-0.2-0.396-0.365c-0.321-0.321-0.733-0.797-1.156-1.395c-0.846-1.195-1.642-2.911-2.114-4.708
		c-0.406-1.778-0.491-3.633-0.301-5.084c0.096-0.726,0.235-1.344,0.367-1.786c0.052-0.217,0.138-0.398,0.176-0.518
		C73.643,32.232,73.667,32.167,73.667,32.167z"/>
</g>
<g>
	<path d="M62.334,32c0,0,0.042,0.045,0.12,0.13c0.072,0.085,0.207,0.208,0.32,0.369c0.256,0.32,0.571,0.782,0.876,1.342
		c0.148,0.28,0.292,0.586,0.426,0.911c0.124,0.333,0.287,0.637,0.403,0.976c0.246,0.667,0.437,1.375,0.543,2.099
		c0.084,0.355,0.152,0.713,0.195,1.073c0.055,0.357,0.073,0.717,0.083,1.072c0.021,0.349-0.028,0.715-0.005,1.036
		c0.007,0.327-0.003,0.645-0.025,0.948c-0.054,0.608-0.151,1.154-0.249,1.557c-0.037,0.196-0.105,0.37-0.135,0.48
		c-0.034,0.114-0.052,0.175-0.052,0.175s-0.051-0.031-0.147-0.089c-0.091-0.061-0.25-0.14-0.402-0.265
		c-0.329-0.239-0.756-0.611-1.206-1.104c-0.22-0.248-0.445-0.526-0.665-0.83c-0.23-0.303-0.372-0.646-0.542-1.001
		c-0.159-0.357-0.315-0.732-0.438-1.122c-0.134-0.388-0.248-0.789-0.342-1.192c-0.122-0.82-0.159-1.655-0.126-2.435
		c0.021-0.386,0.042-0.776,0.123-1.113c0.076-0.343,0.167-0.669,0.264-0.972c0.205-0.605,0.437-1.115,0.634-1.475
		c0.085-0.179,0.196-0.323,0.252-0.42C62.3,32.052,62.334,32,62.334,32z"/>
</g>
</svg>
